<mxfile host="app.diagrams.net" agent="Mozilla/5.0 (Windows NT 10.0; Win64; x64) AppleWebKit/537.36 (KHTML, like Gecko) Chrome/127.0.0.0 Safari/537.36" version="24.7.6">
  <diagram name="Page-1" id="p_SpyRIMWHY703gRN2rd">
    <mxGraphModel dx="880" dy="468" grid="1" gridSize="10" guides="1" tooltips="1" connect="1" arrows="1" fold="1" page="1" pageScale="1" pageWidth="4681" pageHeight="3300" math="0" shadow="0">
      <root>
        <mxCell id="0" />
        <mxCell id="1" parent="0" />
        <mxCell id="AUGIfH160h2Vz6jbnBzo-1" value="" style="ellipse;fillColor=strokeColor;html=1;" parent="1" vertex="1">
          <mxGeometry x="440" width="40" height="40" as="geometry" />
        </mxCell>
        <mxCell id="AUGIfH160h2Vz6jbnBzo-2" value="" style="endArrow=block;html=1;rounded=0;align=center;verticalAlign=bottom;endFill=0;labelBackgroundColor=none;endSize=8;exitX=0.5;exitY=1;exitDx=0;exitDy=0;" parent="1" source="AUGIfH160h2Vz6jbnBzo-1" edge="1">
          <mxGeometry relative="1" as="geometry">
            <mxPoint x="370" y="250" as="sourcePoint" />
            <mxPoint x="460" y="120" as="targetPoint" />
          </mxGeometry>
        </mxCell>
        <mxCell id="AUGIfH160h2Vz6jbnBzo-3" value="" style="resizable=0;html=1;align=center;verticalAlign=top;labelBackgroundColor=none;" parent="AUGIfH160h2Vz6jbnBzo-2" connectable="0" vertex="1">
          <mxGeometry relative="1" as="geometry" />
        </mxCell>
        <mxCell id="AUGIfH160h2Vz6jbnBzo-6" value="Click Sign Up" style="endArrow=block;html=1;rounded=0;align=center;verticalAlign=bottom;endFill=0;labelBackgroundColor=none;endSize=8;exitX=0.5;exitY=1;exitDx=0;exitDy=0;" parent="1" source="AUGIfH160h2Vz6jbnBzo-11" edge="1">
          <mxGeometry x="-0.25" y="40" relative="1" as="geometry">
            <mxPoint x="460" y="170" as="sourcePoint" />
            <mxPoint x="460" y="240" as="targetPoint" />
            <mxPoint as="offset" />
          </mxGeometry>
        </mxCell>
        <mxCell id="AUGIfH160h2Vz6jbnBzo-7" value="Display Sign Up Page" style="resizable=0;html=1;align=center;verticalAlign=top;labelBackgroundColor=none;" parent="AUGIfH160h2Vz6jbnBzo-6" connectable="0" vertex="1">
          <mxGeometry relative="1" as="geometry">
            <mxPoint x="70" as="offset" />
          </mxGeometry>
        </mxCell>
        <mxCell id="AUGIfH160h2Vz6jbnBzo-8" value="Displaying Sign Up&amp;nbsp;&lt;div&gt;Page&lt;/div&gt;" style="html=1;align=center;verticalAlign=top;rounded=1;absoluteArcSize=1;arcSize=10;dashed=0;whiteSpace=wrap;" parent="1" vertex="1">
          <mxGeometry x="390" y="240" width="140" height="40" as="geometry" />
        </mxCell>
        <mxCell id="AUGIfH160h2Vz6jbnBzo-11" value="Displaying Login&amp;nbsp;&lt;div&gt;Page&lt;/div&gt;" style="html=1;align=center;verticalAlign=top;rounded=1;absoluteArcSize=1;arcSize=10;dashed=0;whiteSpace=wrap;" parent="1" vertex="1">
          <mxGeometry x="390" y="120" width="140" height="40" as="geometry" />
        </mxCell>
        <mxCell id="AUGIfH160h2Vz6jbnBzo-12" value="Enter Details" style="endArrow=block;html=1;rounded=0;align=center;verticalAlign=bottom;endFill=0;labelBackgroundColor=none;endSize=8;exitX=0.5;exitY=1;exitDx=0;exitDy=0;" parent="1" source="AUGIfH160h2Vz6jbnBzo-8" edge="1">
          <mxGeometry x="-0.25" y="50" relative="1" as="geometry">
            <mxPoint x="410" y="370" as="sourcePoint" />
            <mxPoint x="460" y="360" as="targetPoint" />
            <mxPoint as="offset" />
          </mxGeometry>
        </mxCell>
        <mxCell id="AUGIfH160h2Vz6jbnBzo-13" value="Verify Details" style="resizable=0;html=1;align=center;verticalAlign=top;labelBackgroundColor=none;" parent="AUGIfH160h2Vz6jbnBzo-12" connectable="0" vertex="1">
          <mxGeometry relative="1" as="geometry">
            <mxPoint x="70" as="offset" />
          </mxGeometry>
        </mxCell>
        <mxCell id="AUGIfH160h2Vz6jbnBzo-14" value="Verifying Details" style="html=1;align=center;verticalAlign=top;rounded=1;absoluteArcSize=1;arcSize=10;dashed=0;whiteSpace=wrap;" parent="1" vertex="1">
          <mxGeometry x="390" y="360" width="140" height="40" as="geometry" />
        </mxCell>
        <mxCell id="AUGIfH160h2Vz6jbnBzo-15" value="Valid Details" style="endArrow=block;html=1;rounded=0;align=center;verticalAlign=bottom;endFill=0;labelBackgroundColor=none;endSize=8;exitX=0.5;exitY=1;exitDx=0;exitDy=0;" parent="1" source="AUGIfH160h2Vz6jbnBzo-14" edge="1">
          <mxGeometry x="-0.25" y="90" relative="1" as="geometry">
            <mxPoint x="490" y="450" as="sourcePoint" />
            <mxPoint x="460" y="480" as="targetPoint" />
            <mxPoint as="offset" />
          </mxGeometry>
        </mxCell>
        <mxCell id="AUGIfH160h2Vz6jbnBzo-16" value="Creates New Account" style="resizable=0;html=1;align=center;verticalAlign=top;labelBackgroundColor=none;" parent="AUGIfH160h2Vz6jbnBzo-15" connectable="0" vertex="1">
          <mxGeometry relative="1" as="geometry">
            <mxPoint x="90" as="offset" />
          </mxGeometry>
        </mxCell>
        <mxCell id="AUGIfH160h2Vz6jbnBzo-17" value="Displaying New&lt;br&gt;Account" style="html=1;align=center;verticalAlign=top;rounded=1;absoluteArcSize=1;arcSize=10;dashed=0;whiteSpace=wrap;" parent="1" vertex="1">
          <mxGeometry x="390" y="480" width="140" height="40" as="geometry" />
        </mxCell>
        <mxCell id="poTTlPZ59TlT436VeaZ5-3" value="" style="endArrow=none;html=1;endSize=12;startArrow=none;startSize=14;startFill=0;edgeStyle=orthogonalEdgeStyle;align=center;verticalAlign=bottom;endFill=0;rounded=0;" edge="1" parent="1">
          <mxGeometry y="3" relative="1" as="geometry">
            <mxPoint x="110" y="310" as="sourcePoint" />
            <mxPoint x="230" y="310" as="targetPoint" />
          </mxGeometry>
        </mxCell>
        <mxCell id="poTTlPZ59TlT436VeaZ5-4" value="" style="endArrow=none;html=1;endSize=12;startArrow=none;startSize=14;startFill=0;edgeStyle=orthogonalEdgeStyle;align=center;verticalAlign=bottom;endFill=0;rounded=0;" edge="1" parent="1">
          <mxGeometry y="3" relative="1" as="geometry">
            <mxPoint x="500" y="440" as="sourcePoint" />
            <mxPoint x="620" y="440" as="targetPoint" />
          </mxGeometry>
        </mxCell>
        <mxCell id="poTTlPZ59TlT436VeaZ5-5" value="" style="endArrow=none;html=1;endSize=12;startArrow=none;startSize=14;startFill=0;edgeStyle=orthogonalEdgeStyle;align=center;verticalAlign=bottom;endFill=0;rounded=0;" edge="1" parent="1">
          <mxGeometry y="3" relative="1" as="geometry">
            <mxPoint x="470" y="320" as="sourcePoint" />
            <mxPoint x="590" y="320" as="targetPoint" />
          </mxGeometry>
        </mxCell>
        <mxCell id="poTTlPZ59TlT436VeaZ5-6" value="" style="endArrow=none;html=1;endSize=12;startArrow=none;startSize=14;startFill=0;edgeStyle=orthogonalEdgeStyle;align=center;verticalAlign=bottom;endFill=0;rounded=0;" edge="1" parent="1">
          <mxGeometry y="3" relative="1" as="geometry">
            <mxPoint x="470" y="200" as="sourcePoint" />
            <mxPoint x="590" y="200" as="targetPoint" />
          </mxGeometry>
        </mxCell>
        <mxCell id="poTTlPZ59TlT436VeaZ5-7" value="" style="endArrow=block;html=1;rounded=0;align=center;verticalAlign=bottom;endFill=0;labelBackgroundColor=none;endSize=8;exitX=0.5;exitY=1;exitDx=0;exitDy=0;" edge="1" parent="1" source="AUGIfH160h2Vz6jbnBzo-17">
          <mxGeometry relative="1" as="geometry">
            <mxPoint x="400" y="610" as="sourcePoint" />
            <mxPoint x="460" y="600" as="targetPoint" />
          </mxGeometry>
        </mxCell>
        <mxCell id="poTTlPZ59TlT436VeaZ5-8" value="" style="resizable=0;html=1;align=center;verticalAlign=top;labelBackgroundColor=none;" connectable="0" vertex="1" parent="poTTlPZ59TlT436VeaZ5-7">
          <mxGeometry relative="1" as="geometry" />
        </mxCell>
        <mxCell id="poTTlPZ59TlT436VeaZ5-10" value="" style="ellipse;html=1;shape=endState;fillColor=strokeColor;" vertex="1" parent="1">
          <mxGeometry x="440" y="600" width="40" height="40" as="geometry" />
        </mxCell>
        <mxCell id="poTTlPZ59TlT436VeaZ5-12" value="Invalid Details" style="endArrow=block;html=1;rounded=0;align=center;verticalAlign=bottom;endFill=0;labelBackgroundColor=none;endSize=8;exitX=0;exitY=0.5;exitDx=0;exitDy=0;entryX=0;entryY=0.5;entryDx=0;entryDy=0;" edge="1" parent="1" source="AUGIfH160h2Vz6jbnBzo-14" target="AUGIfH160h2Vz6jbnBzo-8">
          <mxGeometry x="0.1176" y="100" relative="1" as="geometry">
            <mxPoint x="130" y="350" as="sourcePoint" />
            <mxPoint x="280" y="240" as="targetPoint" />
            <Array as="points">
              <mxPoint x="280" y="380" />
              <mxPoint x="280" y="260" />
            </Array>
            <mxPoint as="offset" />
          </mxGeometry>
        </mxCell>
        <mxCell id="poTTlPZ59TlT436VeaZ5-13" value="Display Error Message &amp;amp; Redirect" style="resizable=0;html=1;align=center;verticalAlign=top;labelBackgroundColor=none;" connectable="0" vertex="1" parent="poTTlPZ59TlT436VeaZ5-12">
          <mxGeometry relative="1" as="geometry">
            <mxPoint x="-90" as="offset" />
          </mxGeometry>
        </mxCell>
      </root>
    </mxGraphModel>
  </diagram>
</mxfile>
